<svg xmlns="http://www.w3.org/2000/svg" viewBox="0 0 322.03 175"><defs><style>.cls-1{fill:#fff;}</style></defs><g id="Layer_2" data-name="Layer 2"><g id="Personal_Brand" data-name="Personal Brand"><path class="cls-1" d="M215.59,50H79.71L73,75H183l-6.7,25-6.7,25-6.69,25H2.92L.43,159.26h0A12.51,12.51,0,0,0,12.51,175H182.1l6.7-25,6.7-25,6.69-25,6.7-25Z"/><path class="cls-1" d="M262,0H52.7A12.49,12.49,0,0,0,40.63,9.26h0L36.41,25h0l-6.7,25L23,75l-6.7,25-6.7,25H145.5l6.69-25h-110l6.7-25,6.7-25,6.7-25H245.68L239,50l-6.7,25-6.7,25-6.7,25-6.7,25-6.69,25h25.88l6.7-25,6.69-25,6.7-25,6.7-25,6.7-25,6.7-25L274,15.74h0A12.49,12.49,0,0,0,262,0Z"/><path class="cls-1" d="M321.6,159.26h0L319.12,150,291.9,48.4,279,96.7,293.24,150H262.92l-6.7,25h53.31A12.5,12.5,0,0,0,321.6,159.26Z"/></g></g></svg>