<svg id="Brand_PNG" data-name="Brand PNG" xmlns="http://www.w3.org/2000/svg" viewBox="0 0 447.53 237.88"><defs><style>.cls-1{fill:#2d3250;}</style></defs><path class="cls-1" d="M373.34,249l-18.13,68-9.06,34-18.13,68H93.23a16.94,16.94,0,0,1-16.41-21.37L80.18,385h220.2l9.07-34,9.05-34,9.07-34H180.77l9.06-34Z" transform="translate(-76.23 -181.06)"/><path class="cls-1" d="M459.17,202.43h0L455.8,215l-9.06,34-.13.51L437.68,283l-9.07,34-9.05,34-18.14,68h-36.7l18.13-68,9.06-34L410,249l9-34H162.18l-9.05,34L135,317H281.8l-9.05,34H89.24l9.06-34,18.13-68,9-34,5.71-21.37a17,17,0,0,1,16.41-12.61H442.75A17,17,0,0,1,459.17,202.43Z" transform="translate(-76.23 -181.06)"/><path class="cls-1" d="M506.77,418.94H438.15l9.07-34h35.84l-9.15-34-8.86-32.89.29-1.09,9.06-34,8.92-33.47,9,33.47,18.3,68,9.16,34,3.39,12.57h0A17,17,0,0,1,506.77,418.94Z" transform="translate(-76.23 -181.06)"/></svg>